<svg width="206" height="217" viewBox="0 0 206 217" fill="none" xmlns="http://www.w3.org/2000/svg">
<path d="M109.495 11.25C108.155 8.92949 105.679 7.5 103 7.5C100.321 7.5 97.8446 8.92949 96.5048 11.25L9.03624 162.75C7.6965 165.071 7.6965 167.929 9.03624 170.25C10.376 172.571 12.8519 174 15.5314 174H190.469C193.148 174 195.624 172.571 196.964 170.25C198.303 167.929 198.303 165.071 196.964 162.75L109.495 11.25Z" fill="white" stroke="#171717" stroke-width="15" stroke-linejoin="round"/>
<path d="M75.3194 145.672C73.4314 145.672 71.6554 145.208 69.9914 144.28C68.3594 143.32 67.0474 141.928 66.0554 140.104C65.0634 138.28 64.5674 136.072 64.5674 133.48V132.712C64.5674 130.12 65.0634 127.912 66.0554 126.088C67.0474 124.264 68.3594 122.888 69.9914 121.96C71.6234 121 73.3994 120.52 75.3194 120.52C76.7594 120.52 77.9594 120.696 78.9194 121.048C79.9114 121.368 80.7114 121.784 81.3194 122.296C81.9274 122.808 82.3914 123.352 82.7114 123.928H83.5754V111.4H89.6234V145H83.6714V142.12H82.8074C82.2634 143.016 81.4154 143.832 80.2634 144.568C79.1434 145.304 77.4954 145.672 75.3194 145.672ZM77.1434 140.392C78.9994 140.392 80.5514 139.8 81.7994 138.616C83.0474 137.4 83.6714 135.64 83.6714 133.336V132.856C83.6714 130.552 83.0474 128.808 81.7994 127.624C80.5834 126.408 79.0314 125.8 77.1434 125.8C75.2874 125.8 73.7354 126.408 72.4874 127.624C71.2394 128.808 70.6154 130.552 70.6154 132.856V133.336C70.6154 135.64 71.2394 137.4 72.4874 138.616C73.7354 139.8 75.2874 140.392 77.1434 140.392ZM96.3288 145V121.192H102.377V145H96.3288ZM99.3528 118.408C98.2648 118.408 97.3368 118.056 96.5688 117.352C95.8328 116.648 95.4648 115.72 95.4648 114.568C95.4648 113.416 95.8328 112.488 96.5688 111.784C97.3368 111.08 98.2648 110.728 99.3528 110.728C100.473 110.728 101.401 111.08 102.137 111.784C102.873 112.488 103.241 113.416 103.241 114.568C103.241 115.72 102.873 116.648 102.137 117.352C101.401 118.056 100.473 118.408 99.3528 118.408ZM118.967 145.672C115.863 145.672 113.319 145 111.335 143.656C109.351 142.312 108.151 140.392 107.735 137.896L113.303 136.456C113.527 137.576 113.895 138.456 114.407 139.096C114.951 139.736 115.607 140.2 116.375 140.488C117.175 140.744 118.039 140.872 118.967 140.872C120.375 140.872 121.415 140.632 122.087 140.152C122.759 139.64 123.095 139.016 123.095 138.28C123.095 137.544 122.775 136.984 122.135 136.6C121.495 136.184 120.471 135.848 119.063 135.592L117.719 135.352C116.055 135.032 114.535 134.6 113.159 134.056C111.783 133.48 110.679 132.696 109.847 131.704C109.015 130.712 108.599 129.432 108.599 127.864C108.599 125.496 109.463 123.688 111.191 122.44C112.919 121.16 115.191 120.52 118.007 120.52C120.663 120.52 122.871 121.112 124.631 122.296C126.391 123.48 127.543 125.032 128.087 126.952L122.471 128.68C122.215 127.464 121.687 126.6 120.887 126.088C120.119 125.576 119.159 125.32 118.007 125.32C116.855 125.32 115.975 125.528 115.367 125.944C114.759 126.328 114.455 126.872 114.455 127.576C114.455 128.344 114.775 128.92 115.415 129.304C116.055 129.656 116.919 129.928 118.007 130.12L119.351 130.36C121.143 130.68 122.759 131.112 124.199 131.656C125.671 132.168 126.823 132.92 127.655 133.912C128.519 134.872 128.951 136.184 128.951 137.848C128.951 140.344 128.039 142.28 126.215 143.656C124.423 145 122.007 145.672 118.967 145.672ZM134.251 145V121.192H140.299V145H134.251ZM137.275 118.408C136.187 118.408 135.259 118.056 134.491 117.352C133.755 116.648 133.387 115.72 133.387 114.568C133.387 113.416 133.755 112.488 134.491 111.784C135.259 111.08 136.187 110.728 137.275 110.728C138.395 110.728 139.323 111.08 140.059 111.784C140.795 112.488 141.163 113.416 141.163 114.568C141.163 115.72 140.795 116.648 140.059 117.352C139.323 118.056 138.395 118.408 137.275 118.408Z" fill="#010204"/>
</svg>
